<svg xmlns="http://www.w3.org/2000/svg"  viewBox="0 0 333333 333333" shape-rendering="geometricPrecision" text-rendering="geometricPrecision" image-rendering="optimizeQuality" fill-rule="evenodd" clip-rule="evenodd"><defs><linearGradient id="a" gradientUnits="userSpaceOnUse" x1="333747" y1="-416.535" x2="-416.142" y2="333746"><stop offset="0" stop-color="#5dd069"/><stop offset="1" stop-color="#2bb641"/></linearGradient></defs><path d="M284741 47856C253398 16447 211710-827 167306-827 75837-829 1390 73626 1390 165162c0 29238 7659 57839 22171 82967L0 334163l88000-23094c24268 13220 51569 20226 79282 20226h67c91475 0 165985-74453 165985-165985 0-44366-17274-86032-48617-117430l24-24zM167355 303286c-24791 0-49073-6681-70258-19248l-5051-3014-52220 13676 13945-50900-3266-5228c-13884-21925-21130-47302-21130-73402 0-76085 61892-138000 138056-138000 36829 0 71526 14402 97554 40427 26040 26108 40361 60723 40361 97615-61 76140-61953 138056-138001 138056l12 20zm75634-103367c-4122-2098-24539-12101-28329-13485-3789-1384-6551-2098-9362 2096-2744 4122-10723 13485-13152 16284-2431 2750-4835 3144-8957 1045-4122-2098-17539-6472-33366-20609-12309-10986-20657-24594-23087-28717-2429-4122-272-6409 1841-8433 1907-1846 4128-4835 6219-7266 2098-2429 2750-4128 4128-6933 1384-2750 709-5181-333-7266-1045-2091-9362-22508-12752-30825-3329-8126-6803-6994-9356-7136-2430-124-5180-124-7918-124s-7266 1039-11055 5173c-3789 4122-14530 14199-14530 34611 0 20417 14850 40108 16935 42921 2096 2744 29252 44680 70849 62624 9886 4250 17606 6803 23622 8778 9947 3138 18971 2683 26109 1630 7978-1175 24539-10016 28014-19703 3470-9695 3470-17988 2431-19703-984-1846-3728-2866-7917-4990l-31 26h-2z" fill="url(#a)"/></svg>